<mxfile host="app.diagrams.net" modified="2023-11-15T08:11:59.079Z" agent="Mozilla/5.0 (Windows NT 10.0; Win64; x64) AppleWebKit/537.36 (KHTML, like Gecko) Chrome/119.0.0.0 Safari/537.36" version="22.1.1" etag="tbrbHEcRdt5uN-p_B-uO" type="github">
  <diagram name="Сторінка-1" id="i8Voxqj9ezKgYNDoDKu-">
    <mxGraphModel>
      <root>
        <mxCell id="0" />
        <mxCell id="1" parent="0" />
      </root>
    </mxGraphModel>
  </diagram>
</mxfile>
